# This file uses centimeters as units for non-parametric coordinates.

mtllib Pylon.mtl
g default
v -1.060223 14.218126 0.767290
v 1.006514 14.218126 0.767290
v -1.060223 14.218126 -0.767290
v 1.006514 14.218126 -0.767290
v -1.399206 13.741722 -1.143369
v 1.351339 13.741722 -1.143369
v 1.351339 13.741722 1.143369
v -1.399206 13.741722 1.143369
v -1.753918 13.265319 -1.543382
v 1.700209 13.265319 -1.543382
v 1.700209 13.265319 1.543382
v -1.753918 13.265319 1.543382
v -2.090141 12.794940 -1.922881
v 2.036430 12.794940 -1.922881
v 2.036430 12.794940 1.922881
v -2.090141 12.794940 1.922881
v -2.446650 11.395879 -2.298962
v 2.398783 11.395879 -2.298962
v 2.398783 11.395879 2.298962
v -2.446650 11.395879 2.298962
v -2.456033 9.960632 -2.685299
v 2.396481 9.960632 -2.685299
v 2.396481 9.960632 2.685299
v -2.456033 9.960632 2.685299
v -2.089586 8.546953 -2.298193
v 2.053402 8.546953 -2.298193
v 2.053402 8.546953 2.298193
v -2.089586 8.546953 2.298193
v -1.750494 7.133273 -1.921990
v 1.696784 7.133273 -1.921990
v 1.696784 7.133273 1.921990
v -1.750494 7.133273 1.921990
v -1.416040 6.161969 -1.518528
v 1.350646 6.161969 -1.518528
v 1.350646 6.161969 1.518528
v -1.416040 6.161969 1.518528
v -1.065263 5.219518 -1.142326
v 1.011553 5.219518 -1.142326
v 1.011553 5.219518 1.142326
v -1.065263 5.219518 1.142326
v -0.708368 4.757909 -0.733411
v 0.678028 4.757909 -0.733411
v 0.678028 4.757909 0.733411
v -0.708368 4.757909 0.733411
v -0.369552 4.286683 -0.389923
v 0.333369 4.286683 -0.389923
v 0.333369 4.286683 0.389923
v -0.369552 4.286683 0.389923
vt 0.290991 0.507160
vt 0.075073 0.507160
vt 0.053959 0.428611
vt 0.312105 0.428611
vt 0.269684 0.533569
vt 0.096380 0.533569
vt 0.032268 0.348030
vt 0.333796 0.348030
vt 0.247225 0.560317
vt 0.118839 0.560317
vt 0.054002 0.268661
vt 0.312062 0.268661
vt 0.226111 0.587064
vt 0.139953 0.587064
vt 0.075123 0.189291
vt 0.290941 0.189291
vt 0.097775 0.134758
vt 0.268289 0.134758
vt 0.118897 0.081845
vt 0.247167 0.081845
vt 0.141855 0.055928
vt 0.224209 0.055928
vt 0.161140 0.029471
vt 0.204924 0.029471
vt 0.624456 0.507160
vt 0.408539 0.507160
vt 0.387424 0.428611
vt 0.645571 0.428611
vt 0.603150 0.533569
vt 0.429846 0.533569
vt 0.365734 0.348030
vt 0.667262 0.348030
vt 0.580691 0.560317
vt 0.452304 0.560317
vt 0.387468 0.268661
vt 0.645528 0.268661
vt 0.559577 0.587064
vt 0.473419 0.587064
vt 0.408589 0.189291
vt 0.624406 0.189291
vt 0.431241 0.134758
vt 0.601754 0.134758
vt 0.452363 0.081845
vt 0.580633 0.081845
vt 0.475321 0.055928
vt 0.557674 0.055928
vt 0.494606 0.029471
vt 0.538390 0.029471
vt 0.352524 0.633056
vt 0.391989 0.633056
vt 0.391989 0.676839
vt 0.352524 0.676839
vt 0.333502 0.613771
vt 0.411340 0.613771
vt 0.411340 0.696124
vt 0.333502 0.696124
vt 0.313464 0.590813
vt 0.430065 0.590813
vt 0.430065 0.719083
vt 0.313464 0.719083
vt 0.524490 0.765566
vt 0.610647 0.765566
vt 0.610647 0.881601
vt 0.524490 0.881601
vt 0.631762 0.746206
vt 0.631762 0.900633
vt 0.503375 0.900633
vt 0.503375 0.746206
vt 0.654220 0.726619
vt 0.654220 0.920548
vt 0.480916 0.920548
vt 0.480916 0.726619
vt 0.675527 0.707742
vt 0.675527 0.939425
vt 0.459610 0.939425
vt 0.459610 0.707742
vt 0.668031 0.017580
vt 0.899714 0.017580
vt 0.920058 0.096129
vt 0.648015 0.096129
vt 0.919929 0.176710
vt 0.647488 0.176710
vt 0.900667 0.256080
vt 0.668062 0.256080
vt 0.880645 0.335450
vt 0.687100 0.335450
vt 0.861211 0.389983
vt 0.705878 0.389983
vt 0.842173 0.442896
vt 0.725572 0.442896
vt 0.947388 0.883852
vt 0.715705 0.883852
vt 0.695689 0.805302
vt 0.967732 0.805302
vt 0.695162 0.724722
vt 0.967603 0.724722
vt 0.715736 0.645352
vt 0.948341 0.645352
vt 0.734774 0.565982
vt 0.928319 0.565982
vt 0.753552 0.511449
vt 0.908885 0.511449
vt 0.773246 0.458536
vt 0.889847 0.458536
vn 0.000000 -1.000000 0.000000
vn 0.000000 -1.000000 0.000000
vn 0.000000 -1.000000 0.000000
vn 0.000000 -1.000000 0.000000
vn 0.000000 0.619615 -0.784906
vn 0.000000 0.619615 -0.784906
vn 0.000000 0.636601 -0.771193
vn 0.000000 0.636585 -0.771207
vn 0.810070 0.586334 0.000000
vn 0.810070 0.586334 0.000000
vn 0.807610 0.589716 0.000000
vn 0.807610 0.589716 0.000000
vn 0.000000 0.619615 0.784906
vn 0.000000 0.619615 0.784906
vn 0.000000 0.636585 0.771207
vn 0.000000 0.636601 0.771193
vn -0.814789 0.579758 0.000000
vn -0.814789 0.579758 0.000000
vn -0.805226 0.592968 0.000000
vn -0.805226 0.592968 0.000000
vn 0.000000 0.632483 -0.774574
vn 0.000000 0.632462 -0.774592
vn 0.811771 0.583976 0.000000
vn 0.811771 0.583976 0.000000
vn 0.000000 0.632462 0.774592
vn 0.000000 0.632483 0.774574
vn -0.810525 0.585704 0.000000
vn -0.810525 0.585704 0.000000
vn 0.000000 0.326580 -0.945170
vn 0.000000 0.326696 -0.945130
vn 0.952881 0.303346 0.000000
vn 0.952881 0.303346 0.000000
vn 0.000000 0.326696 0.945130
vn 0.000000 0.326580 0.945170
vn -0.953879 0.300193 0.000000
vn -0.953879 0.300193 0.000000
vn 0.000000 0.259782 -0.965667
vn 0.000000 0.259783 -0.965667
vn 0.995483 0.094940 0.000000
vn 0.995483 0.094940 0.000000
vn 0.000000 0.259783 0.965667
vn 0.000000 0.259782 0.965667
vn -0.995143 0.098437 0.000000
vn -0.995143 0.098437 0.000000
vn 0.000000 0.259926 -0.965629
vn 0.000000 0.259926 -0.965629
vn 0.999999 -0.001603 0.000000
vn 0.999999 -0.001603 0.000000
vn 0.000000 0.259926 0.965629
vn 0.000000 0.259926 0.965629
vn -0.999979 0.006538 0.000000
vn -0.999979 0.006538 0.000000
vn 0.000000 -0.264106 -0.964494
vn 0.000000 -0.264106 -0.964494
vn 0.000000 -0.261444 -0.965219
vn 0.000000 -0.261444 -0.965219
vn 0.971792 -0.235840 0.000000
vn 0.971792 -0.235840 0.000000
vn 0.970979 -0.239165 0.000000
vn 0.970979 -0.239165 0.000000
vn 0.000000 -0.264106 0.964494
vn 0.000000 -0.264106 0.964494
vn 0.000000 -0.261444 0.965219
vn 0.000000 -0.261444 0.965219
vn -0.968007 -0.250922 0.000000
vn -0.968007 -0.250922 0.000000
vn -0.969711 -0.244256 0.000000
vn -0.969711 -0.244256 0.000000
vn 0.000000 -0.294309 -0.955710
vn 0.000000 -0.294685 -0.955594
vn 0.962898 -0.269867 0.000000
vn 0.962898 -0.269867 0.000000
vn 0.000000 -0.294685 0.955594
vn 0.000000 -0.294309 0.955710
vn -0.965929 -0.258808 0.000000
vn -0.965929 -0.258808 0.000000
vn 0.000000 -0.379338 -0.925258
vn 0.000000 -0.379346 -0.925255
vn 0.941648 -0.336600 0.000000
vn 0.941648 -0.336600 0.000000
vn 0.000000 -0.379346 0.925255
vn 0.000000 -0.379338 0.925258
vn -0.942909 -0.333051 0.000000
vn -0.942909 -0.333051 0.000000
vn 0.000000 -0.432656 -0.901559
vn 0.000000 -0.431061 -0.902323
vn 0.924472 -0.381250 0.000000
vn 0.924472 -0.381250 0.000000
vn 0.000000 -0.431061 0.902323
vn 0.000000 -0.432656 0.901559
vn -0.918345 -0.395781 0.000000
vn -0.918345 -0.395781 0.000000
vn 0.000000 -0.647117 -0.762390
vn 0.000000 -0.647201 -0.762319
vn 0.809794 -0.586714 0.000000
vn 0.809794 -0.586714 0.000000
vn 0.000000 -0.647201 0.762319
vn 0.000000 -0.647117 0.762390
vn -0.795790 -0.605572 0.000000
vn -0.795790 -0.605572 0.000000
vn 0.000000 -0.589045 -0.808100
vn 0.000000 -0.589045 -0.808100
vn 0.807145 -0.590353 0.000000
vn 0.807145 -0.590353 0.000000
vn 0.000000 -0.589045 0.808100
vn 0.000000 -0.589045 0.808100
vn -0.811915 -0.583776 0.000000
vn -0.811915 -0.583776 0.000000
vn 0.000000 1.000000 0.000000
vn 0.000000 1.000000 0.000000
vn 0.000000 1.000000 0.000000
vn 0.000000 1.000000 0.000000
s off
g pCube2
usemtl initialShadingGroup
f 45/49/1 46/50/2 47/51/3 48/52/4
s 1
f 3/63/5 4/62/6 6/65/7 5/66/8
s 2
f 4/13/9 2/14/10 7/10/11 6/9/12
s 3
f 2/61/13 1/64/14 8/67/15 7/68/16
s 4
f 1/37/17 3/38/18 5/34/19 8/33/20
s 1
f 5/66/8 6/65/7 10/69/21 9/70/22
s 2
f 6/9/12 7/10/11 11/6/23 10/5/24
s 3
f 7/68/16 8/67/15 12/71/25 11/72/26
s 4
f 8/33/20 5/34/19 9/30/27 12/29/28
s 1
f 9/70/22 10/69/21 14/73/29 13/74/30
s 2
f 10/5/24 11/6/23 15/2/31 14/1/32
s 3
f 11/72/26 12/71/25 16/75/33 15/76/34
s 4
f 12/29/28 9/30/27 13/26/35 16/25/36
s 1
f 13/77/30 14/78/29 18/79/37 17/80/38
s 2
f 14/1/32 15/2/31 19/3/39 18/4/40
s 3
f 15/91/34 16/92/33 20/93/41 19/94/42
s 4
f 16/25/36 13/26/35 17/27/43 20/28/44
s 1
f 17/80/38 18/79/37 22/81/45 21/82/46
s 2
f 18/4/40 19/3/39 23/7/47 22/8/48
s 3
f 19/94/42 20/93/41 24/95/49 23/96/50
s 4
f 20/28/44 17/27/43 21/31/51 24/32/52
s 5
f 21/82/53 22/81/54 26/83/55 25/84/56
s 6
f 22/8/57 23/7/58 27/11/59 26/12/60
s 7
f 23/96/61 24/95/62 28/97/63 27/98/64
s 8
f 24/32/65 21/31/66 25/35/67 28/36/68
s 5
f 25/84/56 26/83/55 30/85/69 29/86/70
s 6
f 26/12/60 27/11/59 31/15/71 30/16/72
s 7
f 27/98/64 28/97/63 32/99/73 31/100/74
s 8
f 28/36/68 25/35/67 29/39/75 32/40/76
s 5
f 29/86/70 30/85/69 34/87/77 33/88/78
s 6
f 30/16/72 31/15/71 35/17/79 34/18/80
s 7
f 31/100/74 32/99/73 36/101/81 35/102/82
s 8
f 32/40/76 29/39/75 33/41/83 36/42/84
s 5
f 33/88/78 34/87/77 38/89/85 37/90/86
s 6
f 34/18/80 35/17/79 39/19/87 38/20/88
s 7
f 35/102/82 36/101/81 40/103/89 39/104/90
s 8
f 36/42/84 33/41/83 37/43/91 40/44/92
s 5
f 37/57/86 38/58/85 42/54/93 41/53/94
s 6
f 38/20/88 39/19/87 43/21/95 42/22/96
s 7
f 39/59/90 40/60/89 44/56/97 43/55/98
s 8
f 40/44/92 37/43/91 41/45/99 44/46/100
s 5
f 41/53/94 42/54/93 46/50/101 45/49/102
s 6
f 42/22/96 43/21/95 47/23/103 46/24/104
s 7
f 43/55/98 44/56/97 48/52/105 47/51/106
s 8
f 44/46/100 41/45/99 45/47/107 48/48/108
s off
f 2/61/109 4/62/110 3/63/111 1/64/112
