# This file uses centimeters as units for non-parametric coordinates.

mtllib Wood platform.mtl
g default
v -7.076073 -0.500000 1.227789
v 7.076073 -0.500000 1.227789
v -7.076073 0.500000 1.227789
v 7.076073 0.500000 1.227789
v -7.076073 0.500000 -1.227789
v 7.076073 0.500000 -1.227789
v -7.076073 -0.500000 -1.227789
v 7.076073 -0.500000 -1.227789
vt 0.514549 0.174813
vt 0.514549 0.001992
vt 0.584929 0.001992
vt 0.584929 0.174813
vt 0.591686 0.174813
vt 0.591686 0.001992
vt 0.662065 0.001992
vt 0.662065 0.174813
vt 0.078638 0.998008
vt 0.078638 0.001992
vt 0.251459 0.001992
vt 0.251459 0.998008
vt 0.335162 0.998008
vt 0.335162 0.001992
vt 0.507983 0.001992
vt 0.507983 0.998008
vt 0.001321 0.998008
vt 0.001321 0.001992
vt 0.071701 0.001992
vt 0.071701 0.998008
vt 0.258025 0.998008
vt 0.258025 0.001992
vt 0.328404 0.001992
vt 0.328404 0.998008
vn 0.000000 0.000000 1.000000
vn 0.000000 0.000000 1.000000
vn 0.000000 0.000000 1.000000
vn 0.000000 0.000000 1.000000
vn 0.000000 1.000000 0.000000
vn 0.000000 1.000000 0.000000
vn 0.000000 1.000000 0.000000
vn 0.000000 1.000000 0.000000
vn 0.000000 0.000000 -1.000000
vn 0.000000 0.000000 -1.000000
vn 0.000000 0.000000 -1.000000
vn 0.000000 0.000000 -1.000000
vn 0.000000 -1.000000 0.000000
vn 0.000000 -1.000000 0.000000
vn 0.000000 -1.000000 0.000000
vn 0.000000 -1.000000 0.000000
vn 1.000000 0.000000 0.000000
vn 1.000000 0.000000 0.000000
vn 1.000000 0.000000 0.000000
vn 1.000000 0.000000 0.000000
vn -1.000000 0.000000 0.000000
vn -1.000000 0.000000 0.000000
vn -1.000000 0.000000 0.000000
vn -1.000000 0.000000 0.000000
s off
g pCube1
usemtl initialShadingGroup
f 1/17/1 2/18/2 4/19/3 3/20/4
f 3/9/5 4/10/6 6/11/7 5/12/8
f 5/21/9 6/22/10 8/23/11 7/24/12
f 7/13/13 8/14/14 2/15/15 1/16/16
f 2/1/17 8/2/18 6/3/19 4/4/20
f 7/5/21 1/6/22 3/7/23 5/8/24
